<svg width="914" height="400" fill="none" xmlns="http://www.w3.org/2000/svg"><style>#CL0 {fill: #333;}@media (prefers-color-scheme: dark) {#CL0 {fill: #CCC;}}</style><path d="M434.068 211c-.522 0-.952-.168-1.288-.504-.336-.336-.504-.765-.504-1.288s.168-.952.504-1.288c.336-.336.766-.504 1.288-.504.523 0 .952.168 1.288.504.336.336.504.765.504 1.288s-.168.952-.504 1.288c-.336.336-.765.504-1.288.504Zm8.348.168c-1.4 0-2.51-.336-3.332-1.008-.802-.691-1.204-1.615-1.204-2.772v-.252c0-.187.094-.28.28-.28h1.988c.187 0 .28.093.28.28v.196c0 .504.196.933.588 1.288.392.336.878.504 1.456.504.56 0 1.008-.168 1.344-.504.355-.336.532-.765.532-1.288 0-.411-.121-.756-.364-1.036a2.446 2.446 0 0 0-.868-.644 19.35 19.35 0 0 0-1.484-.672 14.77 14.77 0 0 1-1.82-.924c-.466-.299-.886-.728-1.26-1.288-.373-.56-.56-1.269-.56-2.128 0-1.269.392-2.259 1.176-2.968.803-.709 1.876-1.064 3.22-1.064 1.382 0 2.464.364 3.248 1.092.803.728 1.204 1.717 1.204 2.968v.084c0 .187-.093.28-.28.28h-1.932c-.186 0-.28-.093-.28-.28v-.196c0-.504-.177-.933-.532-1.288-.354-.355-.812-.532-1.372-.532-.578 0-1.036.177-1.372.532a1.805 1.805 0 0 0-.504 1.288c0 .392.112.719.336.98.224.261.495.476.812.644.318.149.822.373 1.512.672.766.336 1.4.663 1.904.98.504.299.943.728 1.316 1.288.392.56.588 1.26.588 2.1 0 1.213-.42 2.175-1.26 2.884-.821.709-1.941 1.064-3.36 1.064Zm13.237-14.14c0-.187.093-.28.28-.28h2.128c.186 0 .28.093.28.28v13.692c0 .187-.094.28-.28.28h-2.128c-.187 0-.28-.093-.28-.28v-.812c0-.056-.019-.084-.056-.084-.019 0-.047.019-.084.056-.56.877-1.456 1.316-2.688 1.316-1.12 0-2.026-.336-2.716-1.008-.691-.691-1.036-1.736-1.036-3.136v-10.024c0-.187.093-.28.28-.28h2.128c.186 0 .28.093.28.28v9.436c0 1.605.634 2.408 1.904 2.408.634 0 1.12-.224 1.456-.672.354-.467.532-1.101.532-1.904v-9.268Zm11.021-.504c1.232 0 2.203.401 2.912 1.204.71.784 1.064 1.867 1.064 3.248v5.824c0 1.325-.364 2.399-1.092 3.22-.709.803-1.67 1.204-2.884 1.204-.448 0-.905-.084-1.372-.252a3.55 3.55 0 0 1-1.204-.756c-.037-.037-.074-.047-.112-.028a.118.118 0 0 0-.028.084v.448c0 .187-.093.28-.28.28h-2.128c-.186 0-.28-.093-.28-.28v-19.04c0-.187.094-.28.28-.28h2.128c.187 0 .28.093.28.28v5.824c0 .037.019.065.056.084.038 0 .075-.028.112-.084.71-.653 1.559-.98 2.548-.98Zm1.316 4.62c0-.672-.196-1.223-.588-1.652-.373-.429-.858-.644-1.456-.644-.578 0-1.054.215-1.428.644-.373.429-.56.98-.56 1.652v5.46c0 .672.187 1.223.56 1.652.374.429.85.644 1.428.644.598 0 1.083-.215 1.456-.644.392-.429.588-.98.588-1.652v-5.46Zm11.779-9.464c0-.187.093-.28.28-.28h2.128c.187 0 .28.093.28.28v19.04c0 .187-.093.28-.28.28h-2.128c-.187 0-.28-.093-.28-.28v-.448c0-.037-.019-.065-.056-.084-.019-.019-.047-.009-.084.028a3.55 3.55 0 0 1-1.204.756 3.805 3.805 0 0 1-1.344.252c-1.232 0-2.212-.401-2.94-1.204-.709-.821-1.064-1.895-1.064-3.22v-5.824c0-1.381.355-2.464 1.064-3.248.728-.803 1.708-1.204 2.94-1.204.448 0 .896.084 1.344.252.448.168.849.42 1.204.756.037.037.065.047.084.028.037-.019.056-.047.056-.084v-5.796Zm-1.988 17.22c.523 0 .961-.168 1.316-.504.373-.355.597-.812.672-1.372v-6.3c-.075-.56-.299-1.008-.672-1.344a1.786 1.786 0 0 0-1.316-.532c-.597 0-1.092.215-1.484.644-.373.429-.56.98-.56 1.652v5.46c0 .672.187 1.223.56 1.652.392.429.887.644 1.484.644Zm7.327 7.672c-.038 0-.075-.028-.112-.084a.34.34 0 0 1-.056-.196v-1.652c0-.187.093-.28.28-.28.597-.019 1.064-.112 1.4-.28.354-.168.634-.485.84-.952.224-.467.41-1.148.56-2.044l-.028-.14-3.584-13.888-.028-.084c0-.149.093-.224.28-.224h2.296c.186 0 .289.084.308.252l2.044 10.108c.018.056.037.084.056.084.018 0 .037-.028.056-.084L491.436 197c.037-.168.14-.252.308-.252l2.324.028c.093 0 .158.028.196.084.056.056.065.131.028.224l-3.836 14.896c-.355 1.288-.71 2.24-1.064 2.856-.355.635-.85 1.083-1.484 1.344-.616.261-1.503.392-2.66.392h-.14Zm-61.131-8.632c-.186 0-.28-.093-.28-.28v-2.996c0-.037-.018-.065-.056-.084-.018-.019-.046-.019-.084 0l-2.52 1.54-.14.056c-.093 0-.177-.056-.252-.168l-.532-.924a.439.439 0 0 1-.056-.168c0-.112.047-.187.14-.224l2.632-1.568c.038-.019.056-.047.056-.084 0-.037-.018-.065-.056-.084l-2.632-1.568c-.149-.093-.177-.224-.084-.392l.532-.952c.112-.187.243-.224.392-.112l2.52 1.568c.038.019.066.019.084 0 .038-.019.056-.047.056-.084v-3.024c0-.187.094-.28.28-.28h1.064c.187 0 .28.093.28.28l-.028 3.024c0 .056.01.093.028.112.038.019.075.009.112-.028l2.52-1.568.14-.056c.094 0 .178.056.252.168l.532.952a.422.422 0 0 1 .056.168c0 .093-.046.168-.14.224l-2.632 1.568a.118.118 0 0 0-.028.084c0 .037.01.065.028.084l2.632 1.568c.15.093.178.224.084.392l-.532.952c-.112.187-.242.224-.392.112l-2.52-1.568c-.037-.037-.074-.047-.112-.028-.018.019-.028.056-.028.112l.028 2.996c0 .187-.093.28-.28.28h-1.064Z" id="CL0"/></svg>